<mxfile host="app.diagrams.net" modified="2024-01-15T10:00:00.000Z" agent="5.0" etag="abc123" version="22.1.16" type="device">
  <diagram name="Wiz-Architecture-Clean" id="wiz-architecture-clean">
    <mxGraphModel dx="1422" dy="794" grid="1" gridSize="10" guides="1" tooltips="1" connect="1" arrows="1" fold="1" page="1" pageScale="1" pageWidth="1400" pageHeight="900" math="0" shadow="0">
      <root>
        <mxCell id="0" />
        <mxCell id="1" parent="0" />
        
        <!-- Title -->
        <mxCell id="title" value="Wiz Technical Exercise - Cloud Security Architecture" style="text;html=1;strokeColor=none;fillColor=none;align=center;verticalAlign=middle;whiteSpace=wrap;rounded=0;fontSize=20;fontStyle=1;" vertex="1" parent="1">
          <mxGeometry x="500" y="20" width="400" height="30" as="geometry" />
        </mxCell>
        
        <!-- GitHub Section -->
        <mxCell id="github-section" value="Development &amp; CI/CD" style="rounded=1;whiteSpace=wrap;html=1;fillColor=#f0f0f0;strokeColor=#666666;fontSize=14;fontStyle=1;verticalAlign=top;" vertex="1" parent="1">
          <mxGeometry x="50" y="70" width="500" height="120" as="geometry" />
        </mxCell>
        
        <mxCell id="github-repo" value="📁 GitHub Repository&#xa;&#xa;• Terraform IaC&#xa;• Node.js Application&#xa;• Kubernetes Manifests&#xa;• CI/CD Workflows" style="rounded=1;whiteSpace=wrap;html=1;fillColor=#e1d5e7;strokeColor=#9673a6;fontSize=11;fontStyle=0;verticalAlign=top;" vertex="1" parent="1">
          <mxGeometry x="70" y="100" width="180" height="80" as="geometry" />
        </mxCell>
        
        <mxCell id="github-actions" value="🔄 GitHub Actions&#xa;&#xa;1. TfSec Security Scan&#xa;2. Terraform Deploy&#xa;3. Build Container&#xa;4. Deploy to EKS" style="rounded=1;whiteSpace=wrap;html=1;fillColor=#d5e8d4;strokeColor=#82b366;fontSize=11;fontStyle=0;verticalAlign=top;" vertex="1" parent="1">
          <mxGeometry x="280" y="100" width="180" height="80" as="geometry" />
        </mxCell>
        
        <!-- AWS Cloud -->
        <mxCell id="aws-cloud" value="☁️ AWS Cloud Environment" style="rounded=1;whiteSpace=wrap;html=1;fillColor=#fff2cc;strokeColor=#d6b656;fontSize=16;fontStyle=1;verticalAlign=top;" vertex="1" parent="1">
          <mxGeometry x="50" y="220" width="1300" height="620" as="geometry" />
        </mxCell>
        
        <!-- VPC -->
        <mxCell id="vpc" value="🏗️ VPC (10.0.0.0/16)" style="rounded=1;whiteSpace=wrap;html=1;fillColor=#dae8fc;strokeColor=#6c8ebf;fontSize=14;fontStyle=1;verticalAlign=top;" vertex="1" parent="1">
          <mxGeometry x="80" y="260" width="1240" height="520" as="geometry" />
        </mxCell>
        
        <!-- Public Subnet -->
        <mxCell id="public-subnet" value="🌐 Public Subnet (10.0.1.0/24)" style="rounded=1;whiteSpace=wrap;html=1;fillColor=#f8cecc;strokeColor=#b85450;fontSize=12;fontStyle=1;verticalAlign=top;" vertex="1" parent="1">
          <mxGeometry x="110" y="300" width="350" height="220" as="geometry" />
        </mxCell>
        
        <!-- Private Subnets -->
        <mxCell id="private-subnet" value="🔒 Private Subnets (10.0.10.0/24, 10.0.11.0/24)" style="rounded=1;whiteSpace=wrap;html=1;fillColor=#e1d5e7;strokeColor=#9673a6;fontSize=12;fontStyle=1;verticalAlign=top;" vertex="1" parent="1">
          <mxGeometry x="500" y="300" width="580" height="220" as="geometry" />
        </mxCell>
        
        <!-- Internet Gateway -->
        <mxCell id="igw" value="🌍 Internet Gateway" style="rounded=1;whiteSpace=wrap;html=1;fillColor=#d5e8d4;strokeColor=#82b366;fontSize=11;fontStyle=1;" vertex="1" parent="1">
          <mxGeometry x="200" y="540" width="140" height="40" as="geometry" />
        </mxCell>
        
        <!-- NAT Gateway -->
        <mxCell id="nat" value="🔀 NAT Gateway" style="rounded=1;whiteSpace=wrap;html=1;fillColor=#d5e8d4;strokeColor=#82b366;fontSize=11;fontStyle=1;" vertex="1" parent="1">
          <mxGeometry x="350" y="540" width="100" height="40" as="geometry" />
        </mxCell>
        
        <!-- Application Load Balancer -->
        <mxCell id="alb" value="⚖️ Application&#xa;Load Balancer" style="rounded=1;whiteSpace=wrap;html=1;fillColor=#d5e8d4;strokeColor=#82b366;fontSize=11;fontStyle=1;" vertex="1" parent="1">
          <mxGeometry x="130" y="330" width="120" height="60" as="geometry" />
        </mxCell>
        
        <!-- MongoDB VM (VULNERABLE) -->
        <mxCell id="mongodb-vm" value="🚨 MongoDB VM (VULNERABLE)&#xa;&#xa;• Ubuntu 20.04 (4+ years old)&#xa;• MongoDB 4.4.18 (outdated)&#xa;• SSH open to 0.0.0.0/0&#xa;• Excessive IAM permissions&#xa;• Can create EC2 instances" style="rounded=1;whiteSpace=wrap;html=1;fillColor=#ffcccc;strokeColor=#cc0000;fontSize=10;fontStyle=1;verticalAlign=top;" vertex="1" parent="1">
          <mxGeometry x="280" y="330" width="160" height="120" as="geometry" />
        </mxCell>
        
        <!-- EKS Cluster -->
        <mxCell id="eks-cluster" value="☸️ EKS Cluster (v1.28)" style="rounded=1;whiteSpace=wrap;html=1;fillColor=#e1d5e7;strokeColor=#9673a6;fontSize=12;fontStyle=1;verticalAlign=top;" vertex="1" parent="1">
          <mxGeometry x="520" y="330" width="320" height="160" as="geometry" />
        </mxCell>
        
        <!-- Node.js Application Pods (VULNERABLE) -->
        <mxCell id="nodejs-app" value="🚨 Node.js Todo Application (VULNERABLE)&#xa;&#xa;• Node.js 16.14.0 (known CVEs)&#xa;• Alpine Linux 3.15 (outdated)&#xa;• cluster-admin RBAC privileges&#xa;• Contains wizexercise.txt file&#xa;• Connects to MongoDB" style="rounded=1;whiteSpace=wrap;html=1;fillColor=#ffcccc;strokeColor=#cc0000;fontSize=10;fontStyle=1;verticalAlign=top;" vertex="1" parent="1">
          <mxGeometry x="540" y="360" width="280" height="100" as="geometry" />
        </mxCell>
        
        <!-- EKS Worker Nodes -->
        <mxCell id="eks-nodes" value="🖥️ EKS Worker Nodes&#xa;(t3.small instances)" style="rounded=1;whiteSpace=wrap;html=1;fillColor=#e1d5e7;strokeColor=#9673a6;fontSize=10;fontStyle=1;" vertex="1" parent="1">
          <mxGeometry x="860" y="330" width="140" height="60" as="geometry" />
        </mxCell>
        
        <!-- S3 Storage Section -->
        <mxCell id="storage-section" value="💾 Storage Layer" style="rounded=1;whiteSpace=wrap;html=1;fillColor=#f0f0f0;strokeColor=#666666;fontSize=12;fontStyle=1;verticalAlign=top;" vertex="1" parent="1">
          <mxGeometry x="110" y="600" width="970" height="120" as="geometry" />
        </mxCell>
        
        <!-- S3 Backup Bucket (VULNERABLE) -->
        <mxCell id="s3-backup" value="🚨 S3 Backup Bucket (VULNERABLE)&#xa;&#xa;• Public read access enabled&#xa;• Public list access enabled&#xa;• Database backups exposed to internet&#xa;• No encryption at rest" style="rounded=1;whiteSpace=wrap;html=1;fillColor=#ffcccc;strokeColor=#cc0000;fontSize=10;fontStyle=1;verticalAlign=top;" vertex="1" parent="1">
          <mxGeometry x="130" y="630" width="200" height="80" as="geometry" />
        </mxCell>
        
        <!-- S3 Config Bucket -->
        <mxCell id="s3-config" value="✅ AWS Config Bucket&#xa;(Secure)" style="rounded=1;whiteSpace=wrap;html=1;fillColor=#d5e8d4;strokeColor=#82b366;fontSize=10;fontStyle=1;" vertex="1" parent="1">
          <mxGeometry x="360" y="630" width="120" height="50" as="geometry" />
        </mxCell>
        
        <!-- Security Controls Section -->
        <mxCell id="security-section" value="🛡️ Security Controls &amp; Monitoring" style="rounded=1;whiteSpace=wrap;html=1;fillColor=#d5e8d4;strokeColor=#82b366;fontSize=12;fontStyle=1;verticalAlign=top;" vertex="1" parent="1">
          <mxGeometry x="520" y="630" width="540" height="80" as="geometry" />
        </mxCell>
        
        <mxCell id="cloudtrail" value="📋 CloudTrail&#xa;(Audit Logs)" style="rounded=1;whiteSpace=wrap;html=1;fillColor=#d5e8d4;strokeColor=#82b366;fontSize=9;fontStyle=1;" vertex="1" parent="1">
          <mxGeometry x="540" y="660" width="80" height="40" as="geometry" />
        </mxCell>
        
        <mxCell id="config-rule" value="🔍 AWS Config&#xa;(Detect Public S3)" style="rounded=1;whiteSpace=wrap;html=1;fillColor=#d5e8d4;strokeColor=#82b366;fontSize=9;fontStyle=1;" vertex="1" parent="1">
          <mxGeometry x="640" y="660" width="100" height="40" as="geometry" />
        </mxCell>
        
        <mxCell id="iam-deny" value="🚫 IAM Deny Policy&#xa;(Prevent VPC Delete)" style="rounded=1;whiteSpace=wrap;html=1;fillColor=#d5e8d4;strokeColor=#82b366;fontSize=9;fontStyle=1;" vertex="1" parent="1">
          <mxGeometry x="760" y="660" width="110" height="40" as="geometry" />
        </mxCell>
        
        <mxCell id="tfsec" value="🔒 TfSec Scanning&#xa;(IaC Security)" style="rounded=1;whiteSpace=wrap;html=1;fillColor=#d5e8d4;strokeColor=#82b366;fontSize=9;fontStyle=1;" vertex="1" parent="1">
          <mxGeometry x="890" y="660" width="100" height="40" as="geometry" />
        </mxCell>
        
        <!-- Legend (Simplified and Clear) -->
        <mxCell id="legend" value="📖 Legend" style="rounded=1;whiteSpace=wrap;html=1;fillColor=#f5f5f5;strokeColor=#666666;fontSize=14;fontStyle=1;verticalAlign=top;" vertex="1" parent="1">
          <mxGeometry x="600" y="70" width="750" height="120" as="geometry" />
        </mxCell>
        
        <mxCell id="legend-vuln" value="🚨 Security Vulnerabilities" style="rounded=1;whiteSpace=wrap;html=1;fillColor=#ffcccc;strokeColor=#cc0000;fontSize=11;fontStyle=1;" vertex="1" parent="1">
          <mxGeometry x="620" y="100" width="160" height="30" as="geometry" />
        </mxCell>
        
        <mxCell id="legend-secure" value="✅ Security Controls" style="rounded=1;whiteSpace=wrap;html=1;fillColor=#d5e8d4;strokeColor=#82b366;fontSize=11;fontStyle=1;" vertex="1" parent="1">
          <mxGeometry x="800" y="100" width="140" height="30" as="geometry" />
        </mxCell>
        
        <mxCell id="legend-infra" value="🏗️ Infrastructure" style="rounded=1;whiteSpace=wrap;html=1;fillColor=#e1d5e7;strokeColor=#9673a6;fontSize=11;fontStyle=1;" vertex="1" parent="1">
          <mxGeometry x="960" y="100" width="120" height="30" as="geometry" />
        </mxCell>
        
        <mxCell id="legend-public" value="🌐 Public/Internet Access" style="rounded=1;whiteSpace=wrap;html=1;fillColor=#f8cecc;strokeColor=#b85450;fontSize=11;fontStyle=1;" vertex="1" parent="1">
          <mxGeometry x="620" y="140" width="160" height="30" as="geometry" />
        </mxCell>
        
        <mxCell id="legend-private" value="🔒 Private/Secure" style="rounded=1;whiteSpace=wrap;html=1;fillColor=#dae8fc;strokeColor=#6c8ebf;fontSize=11;fontStyle=1;" vertex="1" parent="1">
          <mxGeometry x="800" y="140" width="120" height="30" as="geometry" />
        </mxCell>
        
        <mxCell id="legend-cicd" value="🔄 CI/CD Pipeline" style="rounded=1;whiteSpace=wrap;html=1;fillColor=#fff2cc;strokeColor=#d6b656;fontSize=11;fontStyle=1;" vertex="1" parent="1">
          <mxGeometry x="940" y="140" width="120" height="30" as="geometry" />
        </mxCell>
        
        <!-- Data Flow Arrows -->
        <!-- GitHub to Actions -->
        <mxCell id="arrow1" style="edgeStyle=orthogonalEdgeStyle;rounded=0;orthogonalLoop=1;jettySize=auto;html=1;strokeWidth=3;strokeColor=#666666;endArrow=classic;" edge="1" parent="1" source="github-repo" target="github-actions">
          <mxGeometry relative="1" as="geometry" />
        </mxCell>
        <mxCell id="arrow1-label" value="Code Push" style="edgeLabel;html=1;align=center;verticalAlign=middle;resizable=0;points=[];fontSize=10;fontStyle=1;" vertex="1" connectable="0" parent="arrow1">
          <mxGeometry x="-0.1" y="-1" relative="1" as="geometry">
            <mxPoint as="offset" />
          </mxGeometry>
        </mxCell>
        
        <!-- Actions to AWS -->
        <mxCell id="arrow2" style="edgeStyle=orthogonalEdgeStyle;rounded=0;orthogonalLoop=1;jettySize=auto;html=1;strokeWidth=3;strokeColor=#d6b656;endArrow=classic;" edge="1" parent="1" source="github-actions" target="aws-cloud">
          <mxGeometry relative="1" as="geometry">
            <mxPoint x="370" y="180" as="sourcePoint" />
            <mxPoint x="370" y="220" as="targetPoint" />
          </mxGeometry>
        </mxCell>
        <mxCell id="arrow2-label" value="Deploy Infrastructure" style="edgeLabel;html=1;align=center;verticalAlign=middle;resizable=0;points=[];fontSize=10;fontStyle=1;" vertex="1" connectable="0" parent="arrow2">
          <mxGeometry x="-0.1" y="-1" relative="1" as="geometry">
            <mxPoint as="offset" />
          </mxGeometry>
        </mxCell>
        
        <!-- Internet to ALB -->
        <mxCell id="arrow3" style="edgeStyle=orthogonalEdgeStyle;rounded=0;orthogonalLoop=1;jettySize=auto;html=1;strokeWidth=3;strokeColor=#ff6600;endArrow=classic;" edge="1" parent="1">
          <mxGeometry relative="1" as="geometry">
            <mxPoint x="190" y="300" as="sourcePoint" />
            <mxPoint x="190" y="330" as="targetPoint" />
          </mxGeometry>
        </mxCell>
        <mxCell id="arrow3-label" value="Internet Traffic" style="edgeLabel;html=1;align=center;verticalAlign=middle;resizable=0;points=[];fontSize=10;fontStyle=1;fontColor=#ff6600;" vertex="1" connectable="0" parent="arrow3">
          <mxGeometry x="-0.1" y="-1" relative="1" as="geometry">
            <mxPoint as="offset" />
          </mxGeometry>
        </mxCell>
        
        <!-- ALB to Node.js App -->
        <mxCell id="arrow4" style="edgeStyle=orthogonalEdgeStyle;rounded=0;orthogonalLoop=1;jettySize=auto;html=1;strokeWidth=3;strokeColor=#0066cc;endArrow=classic;" edge="1" parent="1" source="alb" target="nodejs-app">
          <mxGeometry relative="1" as="geometry" />
        </mxCell>
        <mxCell id="arrow4-label" value="HTTP Requests" style="edgeLabel;html=1;align=center;verticalAlign=middle;resizable=0;points=[];fontSize=10;fontStyle=1;fontColor=#0066cc;" vertex="1" connectable="0" parent="arrow4">
          <mxGeometry x="-0.1" y="-1" relative="1" as="geometry">
            <mxPoint as="offset" />
          </mxGeometry>
        </mxCell>
        
        <!-- Node.js App to MongoDB -->
        <mxCell id="arrow5" style="edgeStyle=orthogonalEdgeStyle;rounded=0;orthogonalLoop=1;jettySize=auto;html=1;strokeWidth=3;strokeColor=#009900;endArrow=classic;" edge="1" parent="1" source="nodejs-app" target="mongodb-vm">
          <mxGeometry relative="1" as="geometry" />
        </mxCell>
        <mxCell id="arrow5-label" value="Database Connection" style="edgeLabel;html=1;align=center;verticalAlign=middle;resizable=0;points=[];fontSize=10;fontStyle=1;fontColor=#009900;" vertex="1" connectable="0" parent="arrow5">
          <mxGeometry x="-0.1" y="-1" relative="1" as="geometry">
            <mxPoint as="offset" />
          </mxGeometry>
        </mxCell>
        
        <!-- MongoDB to S3 -->
        <mxCell id="arrow6" style="edgeStyle=orthogonalEdgeStyle;rounded=0;orthogonalLoop=1;jettySize=auto;html=1;strokeWidth=3;strokeColor=#cc0000;endArrow=classic;" edge="1" parent="1" source="mongodb-vm" target="s3-backup">
          <mxGeometry relative="1" as="geometry" />
        </mxCell>
        <mxCell id="arrow6-label" value="Daily Backups" style="edgeLabel;html=1;align=center;verticalAlign=middle;resizable=0;points=[];fontSize=10;fontStyle=1;fontColor=#cc0000;" vertex="1" connectable="0" parent="arrow6">
          <mxGeometry x="-0.1" y="-1" relative="1" as="geometry">
            <mxPoint as="offset" />
          </mxGeometry>
        </mxCell>
        
      </root>
    </mxGraphModel>
  </diagram>
</mxfile>